PathFileType	4	(X/Y/Z)	c:/Users/goper/Files/vsCode/490R/osim_files/C10/C10_SSWS_05.trc
DataRate	CameraRate	NumFrames	NumMarkers	Units                	OrigDataRate	OrigDataStartFrame	OrigNumFrames
250.00	250.00	6	36	mm	250.0	1407	2250
                Frame#	Time	LPSIS			LASIS			LTH1			LTH2			LTH3			LTH4			LLFE			LMFE			LSH1			LSH2			LSH3			LSH4			LLMAL			LMMAL			LCAL			LMTP5			LTOE			LMTP1			RPSIS			RASIS			RTH1			RTH2			RTH3			RTH4			RLFE			RMFE			RSH1			RSH2			RSH3			RSH4			RLMAL			RMMAL			RCAL			RMTP1			RTOE			RMTP5		
		X1	Y1	Z1	X2	Y2	Z2	X3	Y3	Z3	X4	Y4	Z4	X5	Y5	Z5	X6	Y6	Z6	X7	Y7	Z7	X8	Y8	Z8	X9	Y9	Z9	X10	Y10	Z10	X11	Y11	Z11	X12	Y12	Z12	X13	Y13	Z13	X14	Y14	Z14	X15	Y15	Z15	X16	Y16	Z16	X17	Y17	Z17	X18	Y18	Z18	X19	Y19	Z19	X20	Y20	Z20	X21	Y21	Z21	X22	Y22	Z22	X23	Y23	Z23	X24	Y24	Z24	X25	Y25	Z25	X26	Y26	Z26	X27	Y27	Z27	X28	Y28	Z28	X29	Y29	Z29	X30	Y30	Z30	X31	Y31	Z31	X32	Y32	Z32	X33	Y33	Z33	X34	Y34	Z34	X35	Y35	Z35	X36	Y36	Z36

1407	5.62400	-1742.43054	1000.36829	291.44177	-1890.21375	981.76868	444.00079	-1786.97498	765.94098	485.36200	-1783.56799	718.40094	481.30630	-1848.25977	756.75140	478.67789	-1836.69287	711.47583	472.21463	-1733.21155	478.00858	405.42654	-1744.53027	466.05713	288.12268	-1651.14758	413.42914	405.26804	-1637.33215	367.88623	406.67126	-1708.70081	391.50223	398.53128	-1685.81812	350.52887	398.46616	-1574.99231	101.45576	348.47894	0.00000	0.00000	0.00000	-1499.38049	60.49902	306.70422	-1669.16333	29.36602	366.08981	-1721.03076	44.44258	302.74780	-1680.63257	14.86759	262.28583	-1752.03296	989.67651	210.74107	-1917.70166	960.22937	113.77657	-1900.68628	689.39410	78.32979	-1924.83142	652.55817	79.10956	-1954.28906	718.19763	72.37753	-1973.06860	677.78125	74.72160	-2065.36182	477.96506	148.09868	-2080.69800	484.17685	263.99481	-2041.29236	368.31140	140.73210	-2066.66406	330.62451	140.10223	-2099.28540	394.91190	144.79819	-2113.50049	354.96243	142.10873	-2207.39233	104.27642	189.32239	-2216.85254	123.41352	269.90027	-2184.54956	32.00803	232.21867	-2336.47485	122.80692	256.62335	-2370.74438	152.29927	219.32677	-2336.80078	113.80507	158.51396
1408	5.62800	-1748.58936	999.52344	291.24243	-1896.15710	980.76508	444.10468	-1792.53418	765.37402	485.33170	-1790.49963	718.54535	482.49777	-1853.77502	755.97406	478.62360	-1839.88770	709.66705	471.26663	-1737.32068	477.69434	405.60104	-1748.42480	465.61749	288.25867	-1654.44360	414.25879	406.56677	-1639.93042	368.34470	405.95184	-1711.94397	391.88412	400.94287	-1688.83740	350.49960	398.66687	-1575.81445	102.42675	348.74173	0.00000	0.00000	0.00000	-1499.78552	62.08684	306.98901	-1669.21558	29.37964	366.14362	-1721.06775	44.34144	302.74985	-1680.61365	15.20496	262.21408	-1758.07812	988.81506	210.59398	-1923.69458	959.52051	113.56715	-1907.65967	688.82635	78.22549	-1932.04456	652.08875	79.17677	-1961.00427	718.45001	72.89196	-1980.04407	677.60284	74.71350	-2071.93384	477.67548	148.51137	-2087.50098	484.07352	264.17267	-2047.46680	367.79150	141.16800	-2072.40332	330.06540	140.59456	-2105.50781	394.14557	145.32860	-2119.41382	354.07471	142.59819	-2211.39893	102.72301	190.10349	-2221.00952	121.86868	270.71741	-2188.19116	30.65616	233.08647	-2340.60425	120.44897	257.19501	-2374.95654	149.98624	219.97743	-2340.82910	111.63402	159.14580
1409	5.63200	-1756.74365	998.70038	291.01599	-1902.16443	979.86743	444.14407	-1799.06372	764.74207	485.47107	-1794.36438	717.30151	481.38129	-1859.36963	755.20819	478.57779	-1845.32910	709.05060	471.02768	-1741.50269	477.40247	405.78741	-1752.36780	465.12286	288.37772	-1658.11523	414.53479	406.70459	-1643.32385	368.73700	406.25253	-1715.45288	391.79080	400.90347	-1691.93359	350.54263	398.83334	-1576.60864	103.44866	349.07895	0.00000	0.00000	0.00000	-1500.30688	63.76099	307.30319	-1669.34558	29.40030	366.20111	-1721.11499	44.21122	302.74527	-1680.66577	15.52014	262.14792	-1763.96436	988.06177	210.50307	-1929.78882	958.90833	113.36695	-1914.82068	688.22339	78.06966	-1939.39111	651.70276	79.21471	-1966.06580	718.48236	71.79728	-1987.03210	677.40509	74.69628	-2078.68652	477.44360	149.00374	-2094.30127	483.88211	264.37839	-2053.59399	367.29059	141.67104	-2078.00562	329.45453	141.08351	-2111.53564	393.28668	145.83118	-2125.27393	353.14462	143.16785	-2214.94067	101.01409	190.93407	-2224.76392	120.21116	271.50208	-2191.32300	29.16949	233.99567	-2344.20776	117.68197	257.76501	-2378.71680	147.39197	220.43503	-2344.21338	109.23080	159.77373
1410	5.63600	-1763.06677	997.80713	290.82559	-1908.31226	978.96912	444.11105	-1803.86145	764.27325	485.33463	-1801.31946	717.48053	482.53329	-1865.10840	754.42853	478.42886	-1850.84180	708.28278	470.82718	-1745.77942	477.14575	405.96997	-1756.48999	464.66876	288.57568	-1661.85681	414.83569	407.00085	-1646.70422	369.15161	406.57590	-1718.99524	391.64584	401.00311	-1695.16040	350.60788	398.98999	-1577.45374	104.48831	349.41760	0.00000	0.00000	0.00000	-1500.78381	65.52352	307.67297	-1669.43201	29.40351	366.17990	-1721.14148	44.05012	302.81564	-1680.64233	15.86580	262.12607	-1769.94092	987.29309	210.38313	-1935.76514	958.27167	113.15882	-1922.17493	687.68994	77.89565	-1946.87476	651.30945	79.23846	-1973.38428	718.35706	71.61271	-1993.28381	677.18774	74.31261	-2085.39795	477.20914	149.51756	-2101.20312	483.69305	264.57404	-2059.57446	366.76300	142.15504	-2083.47876	328.86938	141.60243	-2117.66992	392.49881	146.30862	-2130.89526	352.12793	143.71141	-2217.93774	99.17460	191.70132	-2228.12793	118.39958	272.21085	-2193.61792	28.68550	234.68199	-2360.69800	119.41772	266.36984	-2381.92725	144.51396	220.86403	-2347.03638	106.46623	160.30910
1411	5.64000	-1769.25159	997.05273	290.63913	-1914.43164	978.06433	444.14493	-1809.66992	763.65857	485.37189	-1806.95264	716.79370	482.57773	-1870.93323	753.60071	478.37469	-1856.34131	707.42694	470.68161	-1750.08801	476.83386	406.20508	-1760.57410	464.19824	288.79581	-1665.85840	414.63422	406.28165	-1650.28918	369.53586	406.99603	-1722.63733	390.62283	400.10553	-1698.41589	350.57114	399.24850	-1578.36243	105.53944	349.86624	0.00000	0.00000	0.00000	-1501.28186	67.33157	308.12573	-1669.50940	29.36344	366.25540	-1721.17114	43.84352	302.83167	-1680.57642	16.17562	262.08234	-1775.97888	986.51953	210.30710	-1941.80408	957.72778	112.95919	-1929.68188	687.20496	77.72459	-1955.23865	651.56744	79.21495	-1980.84106	718.24146	71.43053	-2000.37219	676.81097	74.75028	-2092.23657	476.98288	150.06207	-2108.11401	483.46906	264.77527	-2065.43457	366.22583	142.60735	-2088.79956	328.27762	142.07587	-2123.55957	391.46832	146.82231	-2136.43652	351.05722	144.24126	-2220.52759	97.60583	192.46812	-2231.04565	116.51550	273.02350	-2194.51538	29.47460	235.06277	-2376.32422	121.05357	275.08829	-2384.64429	141.35158	221.32614	-2349.55908	103.37633	160.88316
1412	5.64400	-1775.50439	996.19910	290.45325	-1920.66956	977.12640	444.14545	-1815.55432	762.99268	485.40698	-1812.56531	716.19714	482.61899	-1876.82434	752.71844	478.32431	-1861.87402	706.50360	470.53192	-1754.49683	476.49747	406.47104	-1764.75549	463.69260	289.03406	-1669.71704	415.36816	407.68210	-1653.87378	369.99203	407.42133	-1726.44019	391.28311	401.28360	-1701.78052	350.60599	399.51785	-1579.31067	106.62949	350.36127	0.00000	0.00000	0.00000	-1501.89038	69.14252	308.57422	-1669.58740	29.30016	366.33020	-1721.18115	43.61728	302.93518	-1680.61768	16.47684	262.09464	-1782.07910	985.72003	210.30392	-1947.99377	957.21179	112.71465	-1937.23022	686.68774	77.50388	-1962.91699	651.20282	79.15826	-1988.41797	718.10974	71.21238	-2007.42944	676.34998	75.37161	-2099.00952	476.71722	150.62659	-2114.95435	483.20328	264.99033	-2071.19678	365.60495	143.08774	-2093.90430	327.61505	142.50652	-2129.46118	390.50656	147.30934	-2141.78735	349.88785	144.76788	-2222.71533	96.36668	193.16948	-2233.64551	114.47440	273.81998	-2195.04663	29.72175	235.60146	-2378.22632	116.80781	275.66641	-2386.96704	137.64459	221.90753	-2351.58130	100.17749	161.46103
